<svg version="1" xmlns="http://www.w3.org/2000/svg" width="574.667" height="574.667" viewBox="0 0 431.000000 431.000000"><path d="M169.8 107.4c-3.6 4-4.8 6.1-4.8 8.4 0 1.8-.1 3.2-.2 3.2-.2 0-6.9-1.8-14.9-3.9l-14.7-3.9-5.1 5.2c-4.1 4.1-5.1 5.8-5.1 8.5 0 3.6-.2 3.6-7.5 1.6-1.5-.4-3.4.8-7.2 4.6l-5.3 5.1v13.5c0 11.3-.2 13.4-1.4 13-.8-.3-3.1-.9-5-1.3-3.4-.6-4-.3-8.6 4.2l-4.9 4.9-.1 20.2V211l2.8.6c1.5.3 4.1 1 5.7 1.4 1.7.5 4.9 1.4 7.2 2l4.3 1.1.2 20.1.3 20.1 9 2.3c5 1.3 9.3 2.3 9.8 2.4.4 0 .7 4.6.7 10.3v10.2l9.8 2.5 9.7 2.6.3 10.2c.1 5.6.5 10.2.7 10.2.3 0 14.6 3.8 31.7 8.4 107 28.8 106.9 28.8 108.6 27.4 6-4.8 9.2-9 9.2-12.3 0-1.9.1-3.5.3-3.5.1 0 2.3.7 4.8 1.4l4.6 1.4 5.2-5.2c4-4.1 5.1-5.9 5.1-8.4 0-3.5.6-3.7 6-2.2 3.3 1 3.6.8 8.7-4.2l5.3-5.2-.2-60.1-.3-60-9.5-2.5-9.5-2.5-.3-10.1-.3-10.1L295 154l-20-5.3v-20.2l-23.8-6.3c-13-3.4-35.4-9.4-49.7-13.2-14.3-3.8-26.2-6.9-26.5-6.9-.3.1-2.6 2.5-5.2 5.3z"/></svg>